<svg xmlns="http://www.w3.org/2000/svg" version="1" width="1000" height="210" viewBox="0 0 1000 210"><path fill="#e0e0e0" d="M877 98h60l2-1c1-6 11-30 48-30 0 0-12 4-17 13-3 5-4 14-5 19l5 6a54 54 0 0 1 28 47 54 54 0 0 1-16 39 55 55 0 0 1-38 16h-67a54 54 0 0 1-39-16 55 55 0 0 1 39-93zm67 87a33 33 0 0 0 23-9 33 33 0 0 0 7-37 33 33 0 0 0-30-20h-67a33 33 0 0 0-23 10 35 35 0 0 0-10 23l2 13a34 34 0 0 0 18 18c4 2 9 2 13 2h67zm-172-44l3 2c-1 5-2 13-5 19-5 9-17 13-17 13 34 0 45-20 48-28h16a59 59 0 0 1 5-21h-25a33 33 0 0 1-23-10 35 35 0 0 1-10-23c0-5 1-9 3-13a34 34 0 0 1 18-18l12-3h67a33 33 0 0 1 23 10 33 33 0 0 1 10 23h21a53 53 0 0 0-16-38 55 55 0 0 0-38-16h-67a54 54 0 0 0-38 16 55 55 0 0 0 13 87zM652 77c7 0 14 1 21 4s12 7 17 12a54 54 0 0 1 17 39v53h-22v-10c-4 4-9 7-15 9l-18 3a53 53 0 0 1-39-16 56 56 0 0 1-16-39 54 54 0 0 1 16-39 56 56 0 0 1 39-16zm0 89a32 32 0 0 0 23-10 35 35 0 0 0 10-24l-2-13a35 35 0 0 0-18-18 32 32 0 0 0-37 7 35 35 0 0 0-10 24c0 5 1 9 3 13a34 34 0 0 0 18 18c4 2 8 3 13 3zm-102-2l15-3 11-9 17 13a55 55 0 0 1-43 21 53 53 0 0 1-39-16 55 55 0 0 1-16-39 52 52 0 0 1 16-38 55 55 0 0 1 39-16 53 53 0 0 1 43 21l-17 13a32 32 0 0 0-26-13 33 33 0 0 0-24 10 33 33 0 0 0-7 36 33 33 0 0 0 31 20zm-112-26h-42a34 34 0 0 0 33 27 34 34 0 0 0 25-11h24l-3 6-3 5a55 55 0 0 1-64 17 55 55 0 1 1 45-99c7 3 14 8 19 15a52 52 0 0 1 11 40h-45zm-9-40c-7 0-13 2-18 5-5 4-10 8-12 14h60a82 82 0 0 1-4-6 34 34 0 0 0-26-13zm-67 33a54 54 0 0 1-15 39 55 55 0 1 1-6-82V14a11 11 0 1 1 21 0v117zm-54 34a33 33 0 0 0 24-10 33 33 0 0 0 9-24 32 32 0 0 0-9-23 33 33 0 0 0-37-7 33 33 0 0 0-18 43 34 34 0 0 0 18 18c4 2 9 3 13 3zM187 77a54 54 0 0 1 39 16 55 55 0 1 1-39-16zm0 87a33 33 0 0 0 24-9 33 33 0 0 0 9-24 33 33 0 0 0-9-23 33 33 0 0 0-47 0 35 35 0 0 0-10 23c0 5 1 9 3 13a35 35 0 0 0 17 18c4 2 9 2 13 2zM23 76v101h-1a10 10 0 0 1-20 0V43c0-5 5-9 9-9s6 2 7 4h1l81 111V44a10 10 0 1 1 20 0h1v129a14 14 0 0 1-26 6L23 76z"/></svg>