<svg xmlns="http://www.w3.org/2000/svg" width="1000" height="210" viewBox="0 0 1000 210"><g fill-rule="evenodd" clip-rule="evenodd" fill="#ffffff"><path d="M22.8 75.7V177h-1A9.9 9.9 0 0 1 2 177V43.4c0 -5 5 -9 9 -9s5.8 1.4 7.4 3.7l1 -.3L99.7 149V44a9.9 9.9 0 1 1 19.8 0h1v129.4a13.5 13.5 0 0 1 -25.7 6L23 75.7zM187 76.7a53.5 53.5 0 0 1 38.6 15.9 54.6 54.6 0 1 1 -38.5 -15.9zm.2 87.7a32.5 32.5 0 0 0 23.4 -9.7 33 33 0 0 0 9.7 -23.5 32.7 32.7 0 0 0 -9.7 -23.6 33.4 33.4 0 0 0 -46.9 0 34.5 34.5 0 0 0 -9.9 23.6c0 4.5 1 8.8 2.7 12.9a32.6 32.6 0 0 0 17.8 17.7c4 1.7 8.3 2.6 12.9 2.6zM362.4 131.4a53.6 53.6 0 0 1 -15.9 38.6 54.6 54.6 0 1 1 -5.3 -81.8V14a10.6 10.6 0 1 1 21.2 0v117.5zm-54.3 33.2a32.5 32.5 0 0 0 23.4 -9.7 33 33 0 0 0 9.7 -23.5v-.2a32 32 0 0 0 -9.7 -23.4 33.4 33.4 0 0 0 -36.3 -7 33.4 33.4 0 0 0 -17.8 43.5 34.5 34.5 0 0 0 17.8 17.7c4 1.7 8.3 2.6 12.9 2.6zM437.7 138.4h-41.4a33.6 33.6 0 0 0 32.6 26.2c4.8 0 9.3 -1 13.5 -2.9 4.2 -2 7.8 -4.6 11 -8h25c-.8 2 -1.8 4 -3 5.8a54.8 54.8 0 0 1 -67.8 22 54.5 54.5 0 1 1 45.4 -99c7.4 3.9 13.6 9 18.6 15.4a51.9 51.9 0 0 1 11.1 40.5h-45zM429 98.2c-6.8 0 -12.8 1.7 -18 5.1 -5.4 3.5 -9.4 8.1 -12.2 13.8H459l-2 -3.2a33.7 33.7 0 0 0 -28.2 -15.7zM549.8 164.4a34 34 0 0 0 26.2 -12.8l16.7 13a54.8 54.8 0 0 1 -43 21 53 53 0 0 1 -38.4 -15.9 54.8 54.8 0 0 1 -16 -38.5 52.4 52.4 0 0 1 16 -38.4 55.2 55.2 0 0 1 38.5 -15.9 53.3 53.3 0 0 1 42.9 21L576 111a32 32 0 0 0 -26.2 -12.7 32.7 32.7 0 0 0 -23.6 9.6 33.2 33.2 0 0 0 -7 36.2 33.3 33.3 0 0 0 30.6 20.4zM651.6 76.9a53 53 0 0 1 21.3 4.3 54.4 54.4 0 0 1 33.7 50.8v53.4h-21.3v-10a53.2 53.2 0 0 1 -33.6 11.5 55.7 55.7 0 0 1 -50.5 -33.5 53.8 53.8 0 0 1 0 -42.8 55.3 55.3 0 0 1 29 -29.4 53 53 0 0 1 21.4 -4.3zm.1 88.7a32.1 32.1 0 0 0 23.7 -10 34.5 34.5 0 0 0 10 -23.6 34.5 34.5 0 0 0 -20.5 -31.2c-4.1 -1.8 -8.5 -2.6 -13.2 -2.6s-9 .8 -13 2.6a34.8 34.8 0 0 0 -18 18 32.3 32.3 0 0 0 0 26.2 34.5 34.5 0 0 0 18 18c4 1.7 8.3 2.6 13 2.6zM772.5 141.1l2.6 1.6a57.4 57.4 0 0 1 -5.5 19.3c-5 8.7 -16.9 12.8 -16.9 12.8 34.4 0 45.2 -19.8 48.1 -27.8h15.9a58.8 58.8 0 0 1 5.8 -21.2h-25a32.6 32.6 0 0 1 -23.5 -9.7 34.5 34.5 0 0 1 -9.9 -23.5A34.5 34.5 0 0 1 784.6 62c4 -1.8 8.3 -2.6 12.8 -2.6H864a32.5 32.5 0 0 1 23.4 9.7 33 33 0 0 1 9.7 22.6h21.2A53.3 53.3 0 0 0 902.4 54 54.5 54.5 0 0 0 864 38.1h-66.5A53.5 53.5 0 0 0 758.6 54a54.5 54.5 0 0 0 13.8 87.1z"/><path d="M877 97.7h59.7l1.9 -1c1.8 -6.1 11.1 -29.7 48.7 -29.7 0 0 -11.9 4 -17 12.8 -3.1 5.6 -4.7 14 -5.4 19.5 2.8 2.6 5.1 5.2 5.1 5.2a54 54 0 0 1 28 47.7 53.6 53.6 0 0 1 -15.9 38.6 54.5 54.5 0 0 1 -38.6 15.9H877a53.5 53.5 0 0 1 -38.6 -16 54.6 54.6 0 0 1 38.6 -93zm66.6 87.7a32.5 32.5 0 0 0 23.5 -9.7 33 33 0 0 0 7 -36.4 33 33 0 0 0 -30.5 -20.3h-66.5a32.5 32.5 0 0 0 -23.5 9.7 34.5 34.5 0 0 0 -9.8 23.5 34.5 34.5 0 0 0 20.5 30.6c4 1.8 8.3 2.6 12.8 2.6h66.5z"/></g></svg>