<?xml version="1.0" standalone="no"?>
<!DOCTYPE svg PUBLIC "-//W3C//DTD SVG 20010904//EN"
 "http://www.w3.org/TR/2001/REC-SVG-20010904/DTD/svg10.dtd">
<svg version="1.0" xmlns="http://www.w3.org/2000/svg"
 width="700.000000pt" height="700.000000pt" viewBox="0 0 700.000000 700.000000"
 preserveAspectRatio="xMidYMid meet">
<metadata>
Created by potrace 1.11, written by Peter Selinger 2001-2013
</metadata>
<g transform="translate(0.000000,700.000000) scale(0.100000,-0.100000)"
fill="#000000" stroke="none">
<path d="M1567 5764 c-1 -1 -49 -4 -107 -7 -362 -19 -702 -169 -955 -423 -42
-42 -95 -102 -118 -133 -23 -31 -44 -58 -48 -61 -11 -10 -95 -156 -118 -205
-117 -248 -162 -500 -138 -770 31 -342 173 -650 412 -891 116 -117 197 -178
341 -260 l104 -59 -6 -40 c-44 -316 -122 -500 -265 -629 -76 -69 -250 -176
-285 -176 -7 0 -16 -5 -20 -11 -5 -9 19 -10 93 -6 476 30 819 194 1044 497 14
19 29 42 33 50 4 8 29 55 54 105 l47 90 207 0 c113 0 209 3 212 6 3 3 9 26 12
50 6 52 10 72 19 119 3 19 7 42 9 50 12 65 57 203 92 278 13 29 24 56 24 60 0
4 -161 8 -357 8 -444 1 -494 6 -633 61 -223 89 -387 245 -489 465 -93 199
-108 415 -43 633 36 120 139 282 242 378 113 107 227 172 385 218 l80 24 1020
0 c561 0 1043 -4 1070 -8 78 -13 207 -60 292 -108 85 -48 239 -192 288 -269
88 -139 140 -285 149 -416 l3 -59 287 -1 287 -2 -6 87 c-36 472 -293 892 -699
1140 -202 124 -422 192 -666 207 -80 5 -1848 12 -1853 8z"/>
<path d="M6470 4978 c-322 -27 -579 -119 -784 -280 -54 -43 -154 -147 -194
-201 -52 -70 -127 -210 -141 -265 -21 -76 36 -71 -927 -73 -473 0 -887 -5
-922 -10 -188 -26 -299 -59 -460 -136 -213 -101 -403 -260 -547 -458 -92 -126
-209 -370 -229 -476 -2 -13 -9 -42 -14 -64 -6 -22 -13 -60 -17 -85 -3 -25 -8
-56 -11 -70 -7 -38 -7 -226 0 -310 8 -90 46 -262 76 -345 27 -77 110 -249 121
-253 5 -2 9 -8 9 -14 0 -26 124 -183 219 -278 187 -186 415 -317 664 -381 181
-46 211 -47 1292 -44 561 1 1029 4 1040 7 11 3 43 9 70 12 194 25 449 135 635
274 275 206 502 569 554 887 3 17 8 50 12 75 10 60 11 329 1 404 -6 49 -17
103 -31 161 -14 56 -21 79 -41 136 -24 68 -89 206 -127 269 -112 184 -300 373
-478 481 -30 18 -87 66 -127 105 -81 83 -78 64 -42 239 38 185 82 306 142 390
74 104 180 190 320 260 50 26 93 47 94 49 5 4 -65 2 -157 -6z m-850 -1400
c345 -77 582 -282 692 -598 32 -92 42 -160 42 -285 0 -121 -6 -168 -34 -260
-74 -238 -236 -429 -457 -539 -58 -29 -156 -63 -227 -78 -61 -13 -1965 -18
-2066 -6 -195 25 -380 117 -521 259 -93 95 -149 181 -207 324 -17 44 -25 73
-47 185 -7 33 -7 198 0 233 3 15 7 38 9 52 18 101 85 254 153 349 133 185 325
308 563 360 54 12 236 14 1070 12 553 -2 1016 -5 1030 -8z"/>
</g>
</svg>
