<?xml version="1.0" standalone="no"?>
<!DOCTYPE svg PUBLIC "-//W3C//DTD SVG 20010904//EN"
 "http://www.w3.org/TR/2001/REC-SVG-20010904/DTD/svg10.dtd">
<svg version="1.0" xmlns="http://www.w3.org/2000/svg"
 width="700.000000pt" height="700.000000pt" viewBox="0 0 700.000000 700.000000"
 preserveAspectRatio="xMidYMid meet">
<metadata>
Created by potrace 1.11, written by Peter Selinger 2001-2013
</metadata>
<g transform="translate(0.000000,700.000000) scale(0.100000,-0.100000)"
fill="#000000" stroke="none">
<path d="M1567 5764 c-1 -1 -51 -4 -112 -8 -117 -6 -128 -7 -245 -32 -253 -55
-525 -206 -711 -396 -65 -66 -189 -219 -189 -232 0 -3 -15 -29 -33 -58 -125
-199 -199 -469 -200 -732 -1 -499 230 -935 649 -1225 39 -26 74 -50 80 -52 5
-2 37 -20 72 -39 l62 -35 -5 -40 c-34 -235 -95 -421 -172 -526 -83 -112 -247
-232 -403 -293 -16 -6 156 1 242 10 77 8 229 42 314 70 226 73 429 214 561
386 60 79 64 86 113 185 22 44 46 83 53 85 6 2 101 4 210 3 109 0 200 2 203 6
2 4 6 23 9 43 3 20 7 52 10 71 14 102 66 283 106 373 16 35 29 67 29 71 0 3
-161 7 -357 7 -403 1 -433 3 -558 39 -81 24 -230 92 -258 119 -7 6 -30 24 -52
40 -109 80 -223 238 -284 395 -77 194 -67 461 24 656 134 287 381 474 690 524
37 6 449 9 1060 8 1112 -3 1030 2 1206 -72 291 -122 509 -421 534 -730 2 -28
4 -53 4 -57 1 -4 129 -7 286 -7 l285 1 -5 71 c-12 158 -36 277 -79 397 -204
558 -700 931 -1286 966 -79 5 -1848 12 -1853 8z"/>
<path d="M6480 4979 c-135 -12 -174 -17 -280 -43 -369 -87 -636 -281 -793
-577 -25 -46 -50 -103 -56 -127 -21 -76 36 -71 -927 -73 -473 0 -887 -5 -922
-10 -249 -35 -437 -105 -632 -235 -108 -72 -129 -89 -224 -182 -194 -189 -356
-492 -402 -747 -18 -105 -24 -173 -25 -277 0 -155 7 -219 39 -358 94 -407 383
-769 765 -962 73 -36 201 -85 272 -103 17 -5 35 -9 40 -11 6 -2 46 -11 90 -20
72 -16 179 -18 1110 -20 567 -1 1055 1 1085 6 30 4 75 11 100 14 71 11 187 44
285 81 337 129 637 413 789 746 33 74 80 203 90 249 36 162 41 212 40 380 -1
229 -32 382 -116 568 -15 35 -28 66 -28 68 0 13 -88 156 -136 221 -107 144
-259 285 -400 370 -33 19 -92 68 -132 108 l-73 74 11 58 c16 93 19 105 31 158
70 313 187 468 452 600 50 26 93 47 94 49 4 4 -65 2 -147 -5z m-855 -1401 c11
-4 45 -13 75 -21 87 -24 221 -82 228 -99 2 -4 8 -8 14 -8 16 0 120 -84 174
-141 124 -132 202 -292 232 -472 8 -54 8 -229 0 -287 -16 -107 -81 -267 -148
-365 -37 -54 -140 -160 -195 -202 -61 -46 -165 -101 -242 -128 -144 -50 -167
-51 -1213 -49 -955 1 -977 1 -1060 22 -92 23 -185 58 -246 94 -245 141 -413
390 -450 668 -6 43 -5 193 2 225 3 17 7 39 8 50 12 88 86 254 158 354 52 72
154 170 226 218 84 55 224 113 327 133 84 17 161 18 1090 16 550 -1 1009 -4
1020 -8z"/>
</g>
</svg>
