<svg xmlns="http://www.w3.org/2000/svg" width="1000" height="1000" viewBox="0 0 1000 1000"><g fill-rule="evenodd" clip-rule="evenodd" fill="#4a7fb5"><path d="M124.4 572.3c3.7 1.8 7 3.7 10 5.9 -2.7 21 -8.7 53 -20.8 74.1 -19.4 33.5 -64.9 49.2 -64.9 49.2 132.1 0 173.3 -76 184.5 -106.6l3.8.1h57.2a225.5 225.5 0 0 1 22.2 -81.5h-96.2a128.3 128.3 0 0 1 -117.6 -78c-6.8 -15.6 -10.3 -32.1 -10.3 -49.5 0 -17.5 3.5 -34 10.3 -49.5a128.2 128.2 0 0 1 117.6 -78h255.4a128.2 128.2 0 0 1 90 37.2 127 127 0 0 1 37 87h81.6c-.4 -27.9 -5.8 -54 -16.2 -78.3a209.4 209.4 0 0 0 -111.2 -111.3 205.5 205.5 0 0 0 -81.6 -16.2H219.8c-29 0 -56.2 5.4 -81.5 16.2A209.3 209.3 0 0 0 27 304.4 205.4 205.4 0 0 0 10.8 386c0 29 5.4 56.2 16.2 81.5a209.3 209.3 0 0 0 97.4 104.8z"/><path d="M525.6 405.8H754.8l7.2 -4.3c6.9 -23.3 42.8 -113.8 186.9 -113.8 0 0 -45.5 15.7 -64.9 49.2 -12.3 21.3 -18.2 53.9 -21 74.8a309.6 309.6 0 0 1 19.8 20.2 207.2 207.2 0 0 1 91 101.4 205.5 205.5 0 0 1 16.3 81.5 209.3 209.3 0 0 1 -127.5 192.8A205.4 205.4 0 0 1 781 824H525.6a209.3 209.3 0 0 1 -192.8 -127.5 205.5 205.5 0 0 1 -16.2 -81.6c0 -29 5.4 -56.2 16.2 -81.5A209.4 209.4 0 0 1 444.1 422a205.4 205.4 0 0 1 81.5 -16.2zm255.8 336.5a128.2 128.2 0 0 0 90 -37.2 127 127 0 0 0 37.1 -90.3 126.9 126.9 0 0 0 -127 -127.5H526a128.3 128.3 0 0 0 -117.6 78c-6.8 15.6 -10.3 32.1 -10.3 49.5s3.5 34 10.3 49.5a128.3 128.3 0 0 0 117.6 78h255.4z"/></g></svg>